<mxfile host="app.diagrams.net" modified="2023-06-08T05:20:34.138Z" agent="Mozilla/5.0 (Windows NT 10.0; Win64; x64) AppleWebKit/537.36 (KHTML, like Gecko) Chrome/114.0.0.0 Safari/537.36 Edg/114.0.1823.37" etag="1Y14dtvto12COeu3Nglz" version="21.3.7" type="device">
  <diagram name="Страница 1" id="phfIKDr8DeLqDYTsvPpg">
    <mxGraphModel dx="2193" dy="737" grid="1" gridSize="10" guides="1" tooltips="1" connect="1" arrows="1" fold="1" page="1" pageScale="1" pageWidth="827" pageHeight="1169" math="0" shadow="0">
      <root>
        <mxCell id="0" />
        <mxCell id="1" parent="0" />
        <mxCell id="GgoYDlVBJpgy3ExUKgeT-8" value="" style="edgeStyle=orthogonalEdgeStyle;rounded=0;orthogonalLoop=1;jettySize=auto;html=1;dashed=1;endArrow=open;endFill=0;endSize=10;" edge="1" parent="1" source="GgoYDlVBJpgy3ExUKgeT-4" target="GgoYDlVBJpgy3ExUKgeT-6">
          <mxGeometry relative="1" as="geometry" />
        </mxCell>
        <mxCell id="GgoYDlVBJpgy3ExUKgeT-4" value="«&lt;b style=&quot;border-color: var(--border-color);&quot;&gt;Component&lt;/b&gt;»&lt;br&gt;User" style="html=1;dropTarget=0;whiteSpace=wrap;" vertex="1" parent="1">
          <mxGeometry x="-100" y="240" width="180" height="90" as="geometry" />
        </mxCell>
        <mxCell id="GgoYDlVBJpgy3ExUKgeT-5" value="" style="shape=module;jettyWidth=8;jettyHeight=4;" vertex="1" parent="GgoYDlVBJpgy3ExUKgeT-4">
          <mxGeometry x="1" width="20" height="20" relative="1" as="geometry">
            <mxPoint x="-27" y="7" as="offset" />
          </mxGeometry>
        </mxCell>
        <mxCell id="GgoYDlVBJpgy3ExUKgeT-6" value="«&lt;b style=&quot;border-color: var(--border-color);&quot;&gt;Component&lt;/b&gt;»&lt;br&gt;Role" style="html=1;dropTarget=0;whiteSpace=wrap;" vertex="1" parent="1">
          <mxGeometry x="150" y="240" width="180" height="90" as="geometry" />
        </mxCell>
        <mxCell id="GgoYDlVBJpgy3ExUKgeT-7" value="" style="shape=module;jettyWidth=8;jettyHeight=4;" vertex="1" parent="GgoYDlVBJpgy3ExUKgeT-6">
          <mxGeometry x="1" width="20" height="20" relative="1" as="geometry">
            <mxPoint x="-27" y="7" as="offset" />
          </mxGeometry>
        </mxCell>
        <mxCell id="GgoYDlVBJpgy3ExUKgeT-15" value="" style="edgeStyle=orthogonalEdgeStyle;rounded=0;orthogonalLoop=1;jettySize=auto;html=1;dashed=1;endArrow=open;endFill=0;endSize=10;" edge="1" parent="1" source="GgoYDlVBJpgy3ExUKgeT-9" target="GgoYDlVBJpgy3ExUKgeT-11">
          <mxGeometry relative="1" as="geometry">
            <Array as="points">
              <mxPoint x="100" y="530" />
              <mxPoint x="100" y="530" />
            </Array>
          </mxGeometry>
        </mxCell>
        <mxCell id="GgoYDlVBJpgy3ExUKgeT-17" value="" style="edgeStyle=orthogonalEdgeStyle;rounded=0;orthogonalLoop=1;jettySize=auto;html=1;dashed=1;endArrow=open;endFill=0;endSize=10;" edge="1" parent="1" source="GgoYDlVBJpgy3ExUKgeT-9" target="GgoYDlVBJpgy3ExUKgeT-13">
          <mxGeometry relative="1" as="geometry">
            <Array as="points">
              <mxPoint x="-70" y="620" />
              <mxPoint x="-70" y="620" />
            </Array>
          </mxGeometry>
        </mxCell>
        <mxCell id="GgoYDlVBJpgy3ExUKgeT-9" value="«&lt;b style=&quot;border-color: var(--border-color);&quot;&gt;Component&lt;/b&gt;»&lt;br&gt;Lot" style="html=1;dropTarget=0;whiteSpace=wrap;" vertex="1" parent="1">
          <mxGeometry x="-110" y="510" width="180" height="90" as="geometry" />
        </mxCell>
        <mxCell id="GgoYDlVBJpgy3ExUKgeT-10" value="" style="shape=module;jettyWidth=8;jettyHeight=4;" vertex="1" parent="GgoYDlVBJpgy3ExUKgeT-9">
          <mxGeometry x="1" width="20" height="20" relative="1" as="geometry">
            <mxPoint x="-27" y="7" as="offset" />
          </mxGeometry>
        </mxCell>
        <mxCell id="GgoYDlVBJpgy3ExUKgeT-16" value="" style="edgeStyle=orthogonalEdgeStyle;rounded=0;orthogonalLoop=1;jettySize=auto;html=1;dashed=1;endArrow=open;endFill=0;endSize=10;" edge="1" parent="1" source="GgoYDlVBJpgy3ExUKgeT-11" target="GgoYDlVBJpgy3ExUKgeT-9">
          <mxGeometry relative="1" as="geometry">
            <Array as="points">
              <mxPoint x="120" y="580" />
              <mxPoint x="120" y="580" />
            </Array>
          </mxGeometry>
        </mxCell>
        <mxCell id="GgoYDlVBJpgy3ExUKgeT-11" value="«&lt;b style=&quot;border-color: var(--border-color);&quot;&gt;Component&lt;/b&gt;»&lt;br&gt;GameOutcome" style="html=1;dropTarget=0;whiteSpace=wrap;" vertex="1" parent="1">
          <mxGeometry x="140" y="510" width="180" height="90" as="geometry" />
        </mxCell>
        <mxCell id="GgoYDlVBJpgy3ExUKgeT-12" value="" style="shape=module;jettyWidth=8;jettyHeight=4;" vertex="1" parent="GgoYDlVBJpgy3ExUKgeT-11">
          <mxGeometry x="1" width="20" height="20" relative="1" as="geometry">
            <mxPoint x="-27" y="7" as="offset" />
          </mxGeometry>
        </mxCell>
        <mxCell id="GgoYDlVBJpgy3ExUKgeT-18" value="" style="edgeStyle=orthogonalEdgeStyle;rounded=0;orthogonalLoop=1;jettySize=auto;html=1;dashed=1;endArrow=open;endFill=0;endSize=10;" edge="1" parent="1" source="GgoYDlVBJpgy3ExUKgeT-13" target="GgoYDlVBJpgy3ExUKgeT-9">
          <mxGeometry relative="1" as="geometry">
            <Array as="points">
              <mxPoint x="30" y="630" />
              <mxPoint x="30" y="630" />
            </Array>
          </mxGeometry>
        </mxCell>
        <mxCell id="GgoYDlVBJpgy3ExUKgeT-21" value="" style="edgeStyle=orthogonalEdgeStyle;rounded=0;orthogonalLoop=1;jettySize=auto;html=1;dashed=1;endArrow=open;endFill=0;endSize=10;" edge="1" parent="1" source="GgoYDlVBJpgy3ExUKgeT-13" target="GgoYDlVBJpgy3ExUKgeT-11">
          <mxGeometry relative="1" as="geometry">
            <mxPoint x="150" y="705" as="targetPoint" />
          </mxGeometry>
        </mxCell>
        <mxCell id="GgoYDlVBJpgy3ExUKgeT-13" value="«&lt;b style=&quot;border-color: var(--border-color);&quot;&gt;Component&lt;/b&gt;»&lt;br&gt;Outcome" style="html=1;dropTarget=0;whiteSpace=wrap;" vertex="1" parent="1">
          <mxGeometry x="-110" y="660" width="180" height="90" as="geometry" />
        </mxCell>
        <mxCell id="GgoYDlVBJpgy3ExUKgeT-14" value="" style="shape=module;jettyWidth=8;jettyHeight=4;" vertex="1" parent="GgoYDlVBJpgy3ExUKgeT-13">
          <mxGeometry x="1" width="20" height="20" relative="1" as="geometry">
            <mxPoint x="-27" y="7" as="offset" />
          </mxGeometry>
        </mxCell>
        <mxCell id="GgoYDlVBJpgy3ExUKgeT-24" value="" style="edgeStyle=orthogonalEdgeStyle;rounded=0;orthogonalLoop=1;jettySize=auto;html=1;dashed=1;endArrow=open;endFill=0;endSize=10;" edge="1" parent="1" source="GgoYDlVBJpgy3ExUKgeT-22" target="GgoYDlVBJpgy3ExUKgeT-4">
          <mxGeometry relative="1" as="geometry" />
        </mxCell>
        <mxCell id="GgoYDlVBJpgy3ExUKgeT-27" value="" style="edgeStyle=orthogonalEdgeStyle;rounded=0;orthogonalLoop=1;jettySize=auto;html=1;dashed=1;endArrow=open;endFill=0;endSize=10;" edge="1" parent="1" source="GgoYDlVBJpgy3ExUKgeT-22" target="GgoYDlVBJpgy3ExUKgeT-13">
          <mxGeometry relative="1" as="geometry">
            <mxPoint x="-180" y="425" as="targetPoint" />
            <Array as="points">
              <mxPoint x="-180" y="425" />
              <mxPoint x="-180" y="705" />
            </Array>
          </mxGeometry>
        </mxCell>
        <mxCell id="GgoYDlVBJpgy3ExUKgeT-22" value="«&lt;b style=&quot;border-color: var(--border-color);&quot;&gt;Component&lt;/b&gt;»&lt;br&gt;Bet" style="html=1;dropTarget=0;whiteSpace=wrap;" vertex="1" parent="1">
          <mxGeometry x="-100" y="380" width="180" height="90" as="geometry" />
        </mxCell>
        <mxCell id="GgoYDlVBJpgy3ExUKgeT-23" value="" style="shape=module;jettyWidth=8;jettyHeight=4;" vertex="1" parent="GgoYDlVBJpgy3ExUKgeT-22">
          <mxGeometry x="1" width="20" height="20" relative="1" as="geometry">
            <mxPoint x="-27" y="7" as="offset" />
          </mxGeometry>
        </mxCell>
        <mxCell id="GgoYDlVBJpgy3ExUKgeT-32" value="" style="edgeStyle=orthogonalEdgeStyle;rounded=0;orthogonalLoop=1;jettySize=auto;html=1;dashed=1;endArrow=open;endFill=0;endSize=10;" edge="1" parent="1" source="GgoYDlVBJpgy3ExUKgeT-28" target="GgoYDlVBJpgy3ExUKgeT-30">
          <mxGeometry relative="1" as="geometry" />
        </mxCell>
        <mxCell id="GgoYDlVBJpgy3ExUKgeT-28" value="«&lt;b style=&quot;border-color: var(--border-color);&quot;&gt;Component&lt;/b&gt;»&lt;br&gt;Bonus" style="html=1;dropTarget=0;whiteSpace=wrap;" vertex="1" parent="1">
          <mxGeometry x="-450" y="120" width="180" height="90" as="geometry" />
        </mxCell>
        <mxCell id="GgoYDlVBJpgy3ExUKgeT-29" value="" style="shape=module;jettyWidth=8;jettyHeight=4;" vertex="1" parent="GgoYDlVBJpgy3ExUKgeT-28">
          <mxGeometry x="1" width="20" height="20" relative="1" as="geometry">
            <mxPoint x="-27" y="7" as="offset" />
          </mxGeometry>
        </mxCell>
        <mxCell id="GgoYDlVBJpgy3ExUKgeT-30" value="«&lt;b style=&quot;border-color: var(--border-color);&quot;&gt;Component&lt;/b&gt;»&lt;br&gt;BonusConfig" style="html=1;dropTarget=0;whiteSpace=wrap;" vertex="1" parent="1">
          <mxGeometry x="-450" y="260" width="180" height="90" as="geometry" />
        </mxCell>
        <mxCell id="GgoYDlVBJpgy3ExUKgeT-31" value="" style="shape=module;jettyWidth=8;jettyHeight=4;" vertex="1" parent="GgoYDlVBJpgy3ExUKgeT-30">
          <mxGeometry x="1" width="20" height="20" relative="1" as="geometry">
            <mxPoint x="-27" y="7" as="offset" />
          </mxGeometry>
        </mxCell>
        <mxCell id="GgoYDlVBJpgy3ExUKgeT-35" value="" style="edgeStyle=orthogonalEdgeStyle;rounded=0;orthogonalLoop=1;jettySize=auto;html=1;dashed=1;endArrow=open;endFill=0;endSize=10;" edge="1" parent="1" source="GgoYDlVBJpgy3ExUKgeT-33" target="GgoYDlVBJpgy3ExUKgeT-4">
          <mxGeometry relative="1" as="geometry">
            <Array as="points">
              <mxPoint x="-140" y="280" />
            </Array>
          </mxGeometry>
        </mxCell>
        <mxCell id="GgoYDlVBJpgy3ExUKgeT-36" value="" style="edgeStyle=orthogonalEdgeStyle;rounded=0;orthogonalLoop=1;jettySize=auto;html=1;dashed=1;endArrow=open;endFill=0;endSize=10;" edge="1" parent="1" source="GgoYDlVBJpgy3ExUKgeT-33" target="GgoYDlVBJpgy3ExUKgeT-28">
          <mxGeometry relative="1" as="geometry" />
        </mxCell>
        <mxCell id="GgoYDlVBJpgy3ExUKgeT-39" value="" style="edgeStyle=orthogonalEdgeStyle;rounded=0;orthogonalLoop=1;jettySize=auto;html=1;dashed=1;endArrow=open;endFill=0;endSize=10;" edge="1" parent="1" source="GgoYDlVBJpgy3ExUKgeT-33" target="GgoYDlVBJpgy3ExUKgeT-37">
          <mxGeometry relative="1" as="geometry" />
        </mxCell>
        <mxCell id="GgoYDlVBJpgy3ExUKgeT-33" value="«&lt;b style=&quot;border-color: var(--border-color);&quot;&gt;Component&lt;/b&gt;»&lt;br&gt;UserBonus" style="html=1;dropTarget=0;whiteSpace=wrap;" vertex="1" parent="1">
          <mxGeometry x="-230" y="120" width="180" height="90" as="geometry" />
        </mxCell>
        <mxCell id="GgoYDlVBJpgy3ExUKgeT-34" value="" style="shape=module;jettyWidth=8;jettyHeight=4;" vertex="1" parent="GgoYDlVBJpgy3ExUKgeT-33">
          <mxGeometry x="1" width="20" height="20" relative="1" as="geometry">
            <mxPoint x="-27" y="7" as="offset" />
          </mxGeometry>
        </mxCell>
        <mxCell id="GgoYDlVBJpgy3ExUKgeT-37" value="«&lt;b style=&quot;border-color: var(--border-color);&quot;&gt;Component&lt;/b&gt;»&lt;br&gt;UserBonusConfig" style="html=1;dropTarget=0;whiteSpace=wrap;" vertex="1" parent="1">
          <mxGeometry y="120" width="180" height="90" as="geometry" />
        </mxCell>
        <mxCell id="GgoYDlVBJpgy3ExUKgeT-38" value="" style="shape=module;jettyWidth=8;jettyHeight=4;" vertex="1" parent="GgoYDlVBJpgy3ExUKgeT-37">
          <mxGeometry x="1" width="20" height="20" relative="1" as="geometry">
            <mxPoint x="-27" y="7" as="offset" />
          </mxGeometry>
        </mxCell>
      </root>
    </mxGraphModel>
  </diagram>
</mxfile>
